<svg xmlns="http://www.w3.org/2000/svg" xmlns:xlink="http://www.w3.org/1999/xlink">
  <defs>
    <svg id="plus" viewBox="0 0 20 20">
      <path d="M10 4.17v11.66M4.17 10h11.66"/>
    </svg>

    <svg id="cross" viewBox="0 0 20 20">
      <path d="M15 5 5 15M5 5l10 10"/>
    </svg>

    <svg id="check" viewBox="0 0 20 20">
      <path d="M16.67 5 7.5 14.17 3.33 10"/>
    </svg>

    <svg id="dots" viewBox="0 0 20 20">
      <path d="M10 10.83a.83.83 0 1 0 0-1.66.83.83 0 0 0 0 1.66Zm5.83 0a.83.83 0 1 0 0-1.66.83.83 0 0 0 0 1.66Zm-11.66 0a.83.83 0 1 0 0-1.66.83.83 0 0 0 0 1.66Z"/>
    </svg>

    <svg id="edit" viewBox="0 0 20 20">
      <path d="M3.33 18.33H17.5M13.33 1.67 16.67 5 7.5 14.17H4.17v-3.34l9.16-9.16Z"/>
    </svg>

    <svg id="delete" viewBox="0 0 20 20">
      <path d="M2.5 5h15M6.67 5V3.33a1.67 1.67 0 0 1 1.66-1.66h3.34a1.67 1.67 0 0 1 1.66 1.66V5m2.5 0v11.67a1.67 1.67 0 0 1-1.66 1.66H5.83a1.67 1.67 0 0 1-1.66-1.66V5h11.66Z"/>
    </svg>
  </defs>
</svg>